<svg version="1.1" id="Layer_1" xmlns="http://www.w3.org/2000/svg" xmlns:xlink="http://www.w3.org/1999/xlink" x="0px" y="0px"
	 width="100%" viewBox="0 0 1366 768" enable-background="new 0 0 1366 768" xml:space="preserve">
<path fill="#414141" opacity="1.000000" stroke="none" 
	d="
M1.000002,684.000000 
	C1.000000,597.976685 1.000000,511.953339 1.323240,425.365540 
	C15.680388,404.913025 32.416702,387.775970 53.161987,374.492218 
	C49.075962,371.539520 45.116116,368.808105 41.295364,365.894287 
	C25.485620,353.837219 12.486319,339.125946 1.000000,323.000000 
	C1.000000,236.976669 1.000000,150.953354 1.305168,64.320938 
	C16.639086,39.419945 35.548279,18.617275 58.000000,1.000000 
	C258.023315,1.000000 458.046631,1.000000 658.520264,1.347846 
	C666.946350,11.641685 674.922180,21.587679 682.944519,31.591738 
	C684.324707,29.568651 685.809143,27.165098 687.516113,24.931637 
	C693.636719,16.923304 699.832581,8.972543 706.000000,0.999998 
	C899.690002,1.000000 1093.380005,1.000000 1287.735474,1.272056 
	C1307.143799,13.458347 1324.247559,27.432961 1338.154419,44.735920 
	C1348.481567,57.585060 1357.434814,71.538467 1367.000000,84.999969 
	C1367.000000,165.356659 1367.000000,245.713318 1366.687256,326.665680 
	C1351.679688,350.872589 1332.956909,370.666809 1310.311157,385.637146 
	C1319.423340,393.332581 1328.958496,399.962280 1336.698364,408.265625 
	C1347.501587,419.855347 1356.963867,432.695160 1367.000000,445.000000 
	C1367.000000,525.356628 1367.000000,605.713318 1366.678467,686.656616 
	C1356.351440,701.301697 1346.945190,715.839417 1336.184448,729.293640 
	C1323.547363,745.093872 1307.467407,757.357056 1291.000000,769.000000 
	C1096.643311,769.000000 902.286682,769.000000 707.330322,768.691833 
	C699.552124,759.298889 692.373718,750.214050 685.455933,741.459045 
	C678.462524,750.435852 671.231262,759.717896 664.000000,769.000000 
	C473.643341,769.000000 283.286682,769.000000 92.218170,768.764648 
	C70.104340,757.312927 50.365559,743.620911 34.164589,725.704590 
	C22.275894,712.557068 11.996565,697.954224 1.000002,684.000000 
z"/>
<path fill="#FEFEFE" opacity="1.000000" stroke="none" 
	d="
M1.000002,684.468628 
	C11.996565,697.954224 22.275894,712.557068 34.164589,725.704590 
	C50.365559,743.620911 70.104340,757.312927 91.753159,768.764648 
	C61.742249,769.000000 31.484501,769.000000 1.000000,769.000000 
	C1.000000,740.979492 1.000000,712.958435 1.000002,684.468628 
z"/>
<path fill="#FDFDFD" opacity="1.000000" stroke="none" 
	d="
M1367.000000,444.531372 
	C1356.963867,432.695160 1347.501587,419.855347 1336.698364,408.265625 
	C1328.958496,399.962280 1319.423340,393.332581 1310.311157,385.637146 
	C1332.956909,370.666809 1351.679688,350.872589 1366.687256,327.130676 
	C1367.000000,366.020905 1367.000000,405.041779 1367.000000,444.531372 
z"/>
<path fill="#FEFEFE" opacity="1.000000" stroke="none" 
	d="
M1367.000000,84.531311 
	C1357.434814,71.538467 1348.481567,57.585060 1338.154419,44.735920 
	C1324.247559,27.432961 1307.143799,13.458347 1288.200439,1.272056 
	C1314.262451,1.000000 1340.524902,1.000000 1367.000000,1.000000 
	C1367.000000,28.687199 1367.000000,56.374939 1367.000000,84.531311 
z"/>
<path fill="#FEFEFE" opacity="1.000000" stroke="none" 
	d="
M1291.468628,769.000000 
	C1307.467407,757.357056 1323.547363,745.093872 1336.184448,729.293640 
	C1346.945190,715.839417 1356.351440,701.301697 1366.678467,687.121643 
	C1367.000000,714.257446 1367.000000,741.514893 1367.000000,769.000000 
	C1341.979492,769.000000 1316.958374,769.000000 1291.468628,769.000000 
z"/>
<path fill="#FDFDFD" opacity="1.000000" stroke="none" 
	d="
M1.000000,323.468658 
	C12.486319,339.125946 25.485620,353.837219 41.295364,365.894287 
	C45.116116,368.808105 49.075962,371.539520 53.161987,374.492218 
	C32.416702,387.775970 15.680388,404.913025 1.323240,424.900513 
	C1.000000,391.312439 1.000000,357.624878 1.000000,323.468658 
z"/>
<path fill="#FEFEFE" opacity="1.000000" stroke="none" 
	d="
M57.531342,1.000000 
	C35.548279,18.617275 16.639086,39.419945 1.305168,63.855927 
	C1.000000,43.076851 1.000000,22.153702 1.000000,1.000000 
	C19.686930,1.000000 38.374805,1.000000 57.531342,1.000000 
z"/>
<path fill="#FDFDFD" opacity="1.000000" stroke="none" 
	d="
M705.531372,0.999998 
	C699.832581,8.972543 693.636719,16.923304 687.516113,24.931637 
	C685.809143,27.165098 684.324707,29.568651 682.944519,31.591738 
	C674.922180,21.587679 666.946350,11.641685 658.985229,1.347846 
	C674.354248,1.000000 689.708435,1.000000 705.531372,0.999998 
z"/>
<path fill="#FDFDFD" opacity="1.000000" stroke="none" 
	d="
M664.468628,769.000000 
	C671.231262,759.717896 678.462524,750.435852 685.455933,741.459045 
	C692.373718,750.214050 699.552124,759.298889 706.865234,768.691833 
	C692.979126,769.000000 678.958191,769.000000 664.468628,769.000000 
z"/>
</svg>